{
  "accessors": [
    {
      "bufferView": 2,
      "componentType": 5126,
      "count": 8406,
      "max": [
        50.5,
        50.500007629394531,
        34.000003814697266
      ],
      "min": [
        -50.5,
        -50.500007629394531,
        0
      ],
      "type": "VEC3"
    },
    {
      "bufferView": 2,
      "byteOffset": 100872,
      "componentType": 5126,
      "count": 8406,
      "max": [
        1,
        1,
        1
      ],
      "min": [
        -1,
        -1,
        -1
      ],
      "type": "VEC3"
    },
    {
      "bufferView": 1,
      "componentType": 5126,
      "count": 8406,
      "max": [
        0.97922861576080322,
        0.98750001192092896
      ],
      "min": [
        0.38749998807907104,
        0.01250004768371582
      ],
      "type": "VEC2"
    },
    {
      "bufferView": 0,
      "componentType": 5125,
      "count": 15240,
      "max": [
        8405
      ],
      "min": [
        0
      ],
      "type": "SCALAR"
    },
    {
      "bufferView": 2,
      "byteOffset": 201744,
      "componentType": 5126,
      "count": 370,
      "max": [
        9.9999923706054688,
        1,
        12
      ],
      "min": [
        -9.9999923706054688,
        -1,
        -0.69507443904876709
      ],
      "type": "VEC3"
    },
    {
      "bufferView": 2,
      "byteOffset": 206184,
      "componentType": 5126,
      "count": 370,
      "max": [
        1,
        1,
        1
      ],
      "min": [
        -1,
        -1,
        -0.94458144903182983
      ],
      "type": "VEC3"
    },
    {
      "bufferView": 1,
      "byteOffset": 67248,
      "componentType": 5126,
      "count": 370,
      "max": [
        0.83575648069381714,
        0.92410296201705933
      ],
      "min": [
        0.46075636148452759,
        0.79326009750366211
      ],
      "type": "VEC2"
    },
    {
      "bufferView": 0,
      "byteOffset": 60960,
      "componentType": 5125,
      "count": 642,
      "max": [
        369
      ],
      "min": [
        0
      ],
      "type": "SCALAR"
    },
    {
      "bufferView": 2,
      "byteOffset": 210624,
      "componentType": 5126,
      "count": 370,
      "max": [
        9.9999923706054688,
        1,
        12
      ],
      "min": [
        -9.9999923706054688,
        -1,
        -0.69507443904876709
      ],
      "type": "VEC3"
    },
    {
      "bufferView": 2,
      "byteOffset": 215064,
      "componentType": 5126,
      "count": 370,
      "max": [
        1,
        1,
        1
      ],
      "min": [
        -1,
        -1,
        -0.94458144903182983
      ],
      "type": "VEC3"
    },
    {
      "bufferView": 1,
      "byteOffset": 70208,
      "componentType": 5126,
      "count": 370,
      "max": [
        0.83575648069381714,
        0.92410296201705933
      ],
      "min": [
        0.46075636148452759,
        0.79326009750366211
      ],
      "type": "VEC2"
    },
    {
      "bufferView": 0,
      "byteOffset": 63528,
      "componentType": 5125,
      "count": 642,
      "max": [
        369
      ],
      "min": [
        0
      ],
      "type": "SCALAR"
    }
  ],
  "asset": {
    "extras": {
      "author": "MRowa (https://sketchfab.com/MRowa)",
      "license": "CC-BY-SA-4.0 (http://creativecommons.org/licenses/by-sa/4.0/)",
      "source": "https://sketchfab.com/3d-models/warehouse-e72b9e5bd44d4184bbc0a1cb8aaddaec",
      "title": "Warehouse"
    },
    "generator": "Sketchfab-8.47.0",
    "version": "2.0"
  },
  "bufferViews": [
    {
      "buffer": 0,
      "byteLength": 66096,
      "byteOffset": 0,
      "name": "floatBufferViews",
      "target": 34963
    },
    {
      "buffer": 0,
      "byteLength": 73168,
      "byteOffset": 66096,
      "byteStride": 8,
      "name": "floatBufferViews",
      "target": 34962
    },
    {
      "buffer": 0,
      "byteLength": 219504,
      "byteOffset": 139264,
      "byteStride": 12,
      "name": "floatBufferViews",
      "target": 34962
    }
  ],
  "buffers": [
    {
      "byteLength": 358768,
      "uri": "scene.bin"
    }
  ],
  "images": [
    {
      "uri": "textures/Placeable_baseColor.png"
    },
    {
      "uri": "textures/Placeable_metallicRoughness.png"
    },
    {
      "uri": "textures/Placeable_emissive.png"
    }
  ],
  "materials": [
    {
      "doubleSided": true,
      "emissiveFactor": [
        1,
        1,
        1
      ],
      "emissiveTexture": {
        "index": 2,
        "texCoord": 0
      },
      "name": "Placeable",
      "pbrMetallicRoughness": {
        "baseColorFactor": [
          1,
          1,
          1,
          1
        ],
        "baseColorTexture": {
          "index": 0,
          "texCoord": 0
        },
        "metallicFactor": 1,
        "metallicRoughnessTexture": {
          "index": 1,
          "texCoord": 0
        },
        "roughnessFactor": 0.80404082057734572
      }
    }
  ],
  "meshes": [
    {
      "name": "Warehouse_body_Placeable_0",
      "primitives": [
        {
          "attributes": {
            "NORMAL": 1,
            "POSITION": 0,
            "TEXCOORD_0": 2
          },
          "indices": 3,
          "material": 0,
          "mode": 4
        }
      ]
    },
    {
      "name": "Warehouse_Door.F_Placeable_0",
      "primitives": [
        {
          "attributes": {
            "NORMAL": 5,
            "POSITION": 4,
            "TEXCOORD_0": 6
          },
          "indices": 7,
          "material": 0,
          "mode": 4
        }
      ]
    },
    {
      "name": "Warehouse_Door.B_Placeable_0",
      "primitives": [
        {
          "attributes": {
            "NORMAL": 9,
            "POSITION": 8,
            "TEXCOORD_0": 10
          },
          "indices": 11,
          "material": 0,
          "mode": 4
        }
      ]
    }
  ],
  "nodes": [
    {
      "children": [
        1
      ],
      "name": "RootNode (gltf orientation matrix)",
      "rotation": [
        -0.70710678118654746,
        -0,
        -0,
        0.70710678118654757
      ]
    },
    {
      "children": [
        2
      ],
      "name": "RootNode (model correction matrix)"
    },
    {
      "children": [
        3
      ],
      "matrix": [
        1,
        0,
        0,
        0,
        0,
        0,
        1,
        0,
        0,
        -1,
        0,
        0,
        0,
        0,
        0,
        1
      ],
      "name": "a8ecd48505404172a486f80b61c49aa1.fbx"
    },
    {
      "children": [
        4
      ],
      "name": "RootNode"
    },
    {
      "children": [
        5,
        7,
        9
      ],
      "matrix": [
        100,
        0,
        0,
        0,
        0,
        -1.6292067939183141e-05,
        -99.999999999998678,
        0,
        0,
        99.999999999998678,
        -1.6292067939183141e-05,
        0,
        0,
        0,
        0,
        1
      ],
      "name": "Warehouse"
    },
    {
      "children": [
        6
      ],
      "matrix": [
        1,
        0,
        0,
        0,
        0,
        1,
        -2.646977960169688e-23,
        0,
        0,
        2.646977960169688e-23,
        1,
        0,
        0,
        0,
        0,
        1
      ],
      "name": "Warehouse_body"
    },
    {
      "mesh": 0,
      "name": "Warehouse_body_Placeable_0"
    },
    {
      "children": [
        8
      ],
      "matrix": [
        1,
        0,
        0,
        0,
        0,
        1,
        -2.646977960169688e-23,
        0,
        0,
        2.646977960169688e-23,
        1,
        0,
        0,
        48,
        1,
        1
      ],
      "name": "Warehouse_Door.F"
    },
    {
      "mesh": 1,
      "name": "Warehouse_Door.F_Placeable_0"
    },
    {
      "children": [
        10
      ],
      "matrix": [
        0.99999999999999645,
        1.224646799147349e-16,
        8.7422780003724772e-08,
        -0,
        1.2246466920853262e-16,
        -1,
        1.224646799147349e-16,
        -0,
        -8.7422780003724772e-08,
        1.2246466920853262e-16,
        0.99999999999999645,
        -0,
        0,
        -48,
        13,
        1
      ],
      "name": "Warehouse_Door.B"
    },
    {
      "mesh": 2,
      "name": "Warehouse_Door.B_Placeable_0"
    }
  ],
  "samplers": [
    {
      "magFilter": 9728,
      "minFilter": 9728,
      "wrapS": 10497,
      "wrapT": 10497
    }
  ],
  "scene": 0,
  "scenes": [
    {
      "name": "OSG_Scene",
      "nodes": [
        0
      ]
    }
  ],
  "textures": [
    {
      "sampler": 0,
      "source": 0
    },
    {
      "sampler": 0,
      "source": 1
    },
    {
      "sampler": 0,
      "source": 2
    }
  ]
}

